<svg role="img" viewBox="0 0 32 32" xmlns="http://www.w3.org/2000/svg">
    <path fill="#3b5999" d="M5,1 C2.790861,1 1,2.790861 1,5 L1,27 C1,29.209139 2.790861,31 5,31 L27,31 C29.209139,31 31,29.209139 31,27 L31,5 C31,2.790861 29.209139,1 27,1 L5,1 Z M5,0 L27,0 C29.7614237,-5.07265313e-16 32,2.23857625 32,5 L32,27 C32,29.7614237 29.7614237,32 27,32 L5,32 C2.23857625,32 3.38176876e-16,29.7614237 0,27 L0,5 C-3.38176876e-16,2.23857625 2.23857625,5.07265313e-16 5,0 Z"/>
    <path fill="#3b5999" d="M13.6383 25H16.9133V16.0044H19.3702L19.8561 13.1936H16.9133V11.1568C16.9133 10.5002 17.3379 9.8108 17.9447 9.8108H19.6171V7H17.5674V7.0126C14.3604 7.129 13.7014 8.9864 13.6443 10.9374H13.6383V13.1936H12V16.0044H13.6383V25Z"/>
</svg>