<svg role="img" viewBox="0 0 32 32" xmlns="http://www.w3.org/2000/svg">
    <path fill="#0077b5" d="M5,0 L27,0 C29.7614237,-5.07265313e-16 32,2.23857625 32,5 L32,27 C32,29.7614237 29.7614237,32 27,32 L5,32 C2.23857625,32 3.38176876e-16,29.7614237 0,27 L0,5 C-3.38176876e-16,2.23857625 2.23857625,5.07265313e-16 5,0 Z M9.97232285,11.5995823 C11.0610099,11.5995823 11.9435914,10.7947111 11.9435914,9.80075848 C11.9435914,8.8059265 11.0610099,8 9.97232285,8 C8.88258153,8 8,8.8059265 8,9.80075848 C8,10.7947111 8.88258153,11.5995823 9.97232285,11.5995823 Z M8.4518207,23.1711013 L11.9888237,23.1711013 L11.9888237,12.9700277 L8.4518207,12.9700277 L8.4518207,23.1711013 Z M16.9530531,17.4974678 C16.9530531,16.3276256 17.5065334,15.1836392 18.8299664,15.1836392 C20.1533994,15.1836392 20.4788107,16.3276256 20.4788107,17.4695014 L20.4788107,23.0408069 L24,23.0408069 L24,17.2417242 C24,13.2127953 21.6184531,12.518207 20.1533994,12.518207 C18.6895756,12.518207 17.8821971,13.0133365 16.9530531,14.2130799 L16.9530531,12.8397333 L13.4218484,12.8397333 L13.4218484,23.0408069 L16.9530531,23.0408069 L16.9530531,17.4974678 Z"/>
</svg>