<svg role="img" viewBox="0 0 32 32" xmlns="http://www.w3.org/2000/svg">
    <path fill="#61a854" d="M5,1 C2.790861,1 1,2.790861 1,5 L1,27 C1,29.209139 2.790861,31 5,31 L27,31 C29.209139,31 31,29.209139 31,27 L31,5 C31,2.790861 29.209139,1 27,1 L5,1 Z M5,0 L27,0 C29.7614237,-5.07265313e-16 32,2.23857625 32,5 L32,27 C32,29.7614237 29.7614237,32 27,32 L5,32 C2.23857625,32 3.38176876e-16,29.7614237 0,27 L0,5 C-3.38176876e-16,2.23857625 2.23857625,5.07265313e-16 5,0 Z"/>
    <path fill="#61a854" d="M23.8998946,20.7288061 L23.8203967,20.4892747 C23.6321122,19.9296429 23.0149741,19.3459776 22.4480118,19.1922036 L20.3496687,18.6189818 C19.780631,18.4641701 18.9689155,18.6723375 18.5525808,19.0886387 L17.7931499,19.8480697 C15.0332168,19.1022956 12.8689992,16.9380111 12.1242294,14.1786136 L12.8836938,13.4191492 C13.3000285,13.0028145 13.5081624,12.1921701 13.3533507,11.6231325 L12.7811666,9.5237517 C12.6263549,8.9557517 12.0416185,8.33861362 11.4830578,8.15240442 L11.2435264,8.07186885 C10.6838946,7.88565965 9.8857691,8.07397764 9.46946785,8.4902789 L8.33346785,9.62731655 C8.13052224,9.82919103 8.00081513,10.4065969 8.00081513,10.4087057 C7.96108291,14.0154002 9.37530885,17.4902789 11.926539,20.0415425 C14.4715097,22.5865132 17.9333674,23.9986638 21.529585,23.9683375 C21.5483967,23.9683375 22.142539,23.8407057 22.3454846,23.6387977 L23.4814846,22.5027977 C23.8977858,22.0865299 24.0860704,21.2884379 23.8998946,20.7288061 Z"/>
</svg>