<svg role="img" viewBox="0 0 32 32" xmlns="http://www.w3.org/2000/svg">
    <path fill="#bd081c" d="M5,1 C2.790861,1 1,2.790861 1,5 L1,27 C1,29.209139 2.790861,31 5,31 L27,31 C29.209139,31 31,29.209139 31,27 L31,5 C31,2.790861 29.209139,1 27,1 L5,1 Z M5,0 L27,0 C29.7614237,-5.07265313e-16 32,2.23857625 32,5 L32,27 C32,29.7614237 29.7614237,32 27,32 L5,32 C2.23857625,32 3.38176876e-16,29.7614237 0,27 L0,5 C-3.38176876e-16,2.23857625 2.23857625,5.07265313e-16 5,0 Z"/>
    <path fill="#bd081c" d="M10,13.7403846 C10,13.0480735 10.1201911,12.3958364 10.3605769,11.7836538 C10.6009627,11.1714713 10.9326902,10.6378228 11.3557692,10.1826923 C11.7788483,9.72756183 12.2660229,9.333335 12.8173077,9 C13.3685925,8.666665 13.9615353,8.4166675 14.5961538,8.25 C15.2307724,8.0833325 15.8782018,8 16.5384615,8 C17.5512871,8 18.4935854,8.21313889 19.3653846,8.63942308 C20.2371838,9.06570726 20.9455101,9.68589337 21.4903846,10.5 C22.0352591,11.3141066 22.3076923,12.2339692 22.3076923,13.2596154 C22.3076923,13.8750031 22.2467955,14.4775612 22.125,15.0673077 C22.0032045,15.6570542 21.8108987,16.2243562 21.5480769,16.7692308 C21.2852551,17.3141053 20.9647455,17.7932672 20.5865385,18.2067308 C20.2083314,18.6201944 19.7435925,18.9503193 19.1923077,19.1971154 C18.6410229,19.4439115 18.0352597,19.5673077 17.375,19.5673077 C16.9391004,19.5673077 16.5064124,19.4647446 16.0769231,19.2596154 C15.6474337,19.0544862 15.3397445,18.7724377 15.1538462,18.4134615 C15.0897433,18.6634628 15.0000006,19.0240361 14.8846154,19.4951923 C14.7692302,19.9663485 14.6939104,20.2708326 14.6586538,20.4086538 C14.6233973,20.546475 14.5576928,20.7740369 14.4615385,21.0913462 C14.3653841,21.4086554 14.2820516,21.6362173 14.2115385,21.7740385 C14.1410253,21.9118597 14.0384622,22.1121782 13.9038462,22.375 C13.7692301,22.6378218 13.6217957,22.8862168 13.4615385,23.1201923 C13.3012813,23.3541678 13.1025653,23.6314087 12.8653846,23.9519231 L12.7307692,24 L12.6442308,23.9038462 C12.5480764,22.8974309 12.5,22.2948728 12.5,22.0961538 C12.5,21.5064073 12.5689096,20.844555 12.7067308,20.1105769 C12.844552,19.3765989 13.0576909,18.4551338 13.3461538,17.3461538 C13.6346168,16.2371739 13.8012818,15.5865394 13.8461538,15.3942308 C13.6410246,14.977562 13.5384615,14.4359008 13.5384615,13.7692308 C13.5384615,13.2371768 13.7051265,12.7371818 14.0384615,12.2692308 C14.3717965,11.8012797 14.7948692,11.5673077 15.3076923,11.5673077 C15.6987199,11.5673077 16.003204,11.6971141 16.2211538,11.9567308 C16.4391037,12.2163475 16.5480769,12.5448698 16.5480769,12.9423077 C16.5480769,13.3653867 16.4070527,13.9775601 16.125,14.7788462 C15.8429473,15.5801322 15.7019231,16.1794852 15.7019231,16.5769231 C15.7019231,16.9807713 15.8461524,17.3157038 16.1346154,17.5817308 C16.4230784,17.8477577 16.7724338,17.9807692 17.1826923,17.9807692 C17.5352582,17.9807692 17.862178,17.9006418 18.1634615,17.7403846 C18.4647451,17.5801274 18.7163451,17.3621809 18.9182692,17.0865385 C19.1201933,16.8108961 19.2996787,16.5064119 19.4567308,16.1730769 C19.6137828,15.8397419 19.7355765,15.4855788 19.8221154,15.1105769 C19.9086543,14.735575 19.9727562,14.3798094 20.0144231,14.0432692 C20.05609,13.7067291 20.0769231,13.387822 20.0769231,13.0865385 C20.0769231,11.9775586 19.725965,11.1137851 19.0240385,10.4951923 C18.3221119,9.87659947 17.4070569,9.56730769 16.2788462,9.56730769 C14.9967885,9.56730769 13.9262863,9.98236764 13.0673077,10.8125 C12.208329,11.6426324 11.7788462,12.6955064 11.7788462,13.9711538 C11.7788462,14.2532065 11.8189099,14.5256397 11.8990385,14.7884615 C11.9791671,15.0512834 12.0657047,15.2596146 12.1586538,15.4134615 C12.251603,15.5673085 12.3381406,15.7131403 12.4182692,15.8509615 C12.4983978,15.9887827 12.5384615,16.0865382 12.5384615,16.1442308 C12.5384615,16.3237188 12.4903851,16.5576909 12.3942308,16.8461538 C12.2980764,17.1346168 12.1794879,17.2788462 12.0384615,17.2788462 C12.025641,17.2788462 11.9711543,17.2692309 11.875,17.25 C11.5480753,17.1538457 11.2580141,16.9743603 11.0048077,16.7115385 C10.7516013,16.4487166 10.5560904,16.145835 10.4182692,15.8028846 C10.280448,15.4599342 10.1762824,15.1137838 10.1057692,14.7644231 C10.0352561,14.4150624 10,14.0737196 10,13.7403846 Z"/>
</svg>